<svg width="326" height="208" viewBox="0 0 326 208" fill="none" xmlns="http://www.w3.org/2000/svg">
<path d="M256.443 207.816L45.2397 207.996L31.7148 49.9388C31.7148 49.9388 84.9812 38.7695 136.794 53.1488C121.015 54.8193 108.274 61.5831 99.3228 71.606L99.2411 71.7043L97.1667 74.1773C95.4352 76.3554 93.8835 78.6646 92.495 81.0885C87.17 90.3908 84.3442 101.38 84.3442 113.155C84.3442 146.499 111.312 173.538 144.585 173.538C145.026 173.538 145.467 173.538 145.908 173.522C154.027 173.358 161.736 171.802 168.76 168.986C189.995 160.453 204.826 140.424 204.826 113.155C204.826 105.147 203.275 97.4986 200.449 90.4891C244.307 136.46 256.443 207.816 256.443 207.816Z" fill="#005AA6"/>
<path d="M72.8122 154.316H61.3455C60.9698 154.316 60.6758 154.004 60.6758 153.644C60.6758 153.267 60.9861 152.973 61.3455 152.973H72.8122C73.1879 152.973 73.4819 153.284 73.4819 153.644C73.4819 154.021 73.1879 154.316 72.8122 154.316Z" fill="#111827"/>
<path d="M221.683 19.9367H192.558C192.183 19.9367 191.889 19.6255 191.889 19.2652C191.889 18.9049 192.199 18.5938 192.558 18.5938H221.683C222.058 18.5938 222.352 18.9049 222.352 19.2652C222.352 19.6255 222.058 19.9367 221.683 19.9367Z" fill="#111827"/>
<path d="M232.823 8.73716C232.627 8.73716 232.431 8.65527 232.3 8.4915C232.055 8.19671 232.104 7.77089 232.382 7.54161L236.564 4.02049L232.382 1.23635C232.072 1.02344 231.99 0.61401 232.186 0.302841C232.398 -0.00832791 232.807 -0.0902165 233.117 0.106311L238.066 3.38177C238.246 3.49642 238.361 3.69295 238.361 3.90585C238.377 4.11876 238.279 4.33166 238.115 4.46268L233.232 8.55701C233.134 8.67165 232.986 8.73716 232.823 8.73716Z" fill="#111827"/>
<path d="M269.021 71.0211C267.764 69.9893 266.522 68.9739 265.265 67.9422C264.595 67.4017 263.631 68.3516 264.301 68.892C265.559 69.9238 266.8 70.9392 268.058 71.971C268.744 72.5278 269.691 71.5779 269.021 71.0211Z" fill="#005AA6"/>
<path d="M51.334 38.2812L54.2742 45.9131L60.6936 40.8197L51.334 38.2812Z" fill="#111827"/>
<path d="M85.5038 88.6908C86.6946 88.6908 87.6599 87.7229 87.6599 86.529C87.6599 85.3351 86.6946 84.3672 85.5038 84.3672C84.313 84.3672 83.3477 85.3351 83.3477 86.529C83.3477 87.7229 84.313 88.6908 85.5038 88.6908Z" fill="#111827"/>
<path d="M128.349 177.081C129.54 177.081 130.506 176.114 130.506 174.92C130.506 173.726 129.54 172.758 128.349 172.758C127.159 172.758 126.193 173.726 126.193 174.92C126.193 176.114 127.159 177.081 128.349 177.081Z" fill="#111827"/>
<path d="M165.215 45.4721C166.406 45.4721 167.371 44.5042 167.371 43.3102C167.371 42.1163 166.406 41.1484 165.215 41.1484C164.024 41.1484 163.059 42.1163 163.059 43.3102C163.059 44.5042 164.024 45.4721 165.215 45.4721Z" fill="#111827"/>
<path d="M213.566 141.609C214.757 141.609 215.722 140.641 215.722 139.447C215.722 138.253 214.757 137.285 213.566 137.285C212.375 137.285 211.41 138.253 211.41 139.447C211.41 140.641 212.375 141.609 213.566 141.609Z" fill="#111827"/>
<path d="M200.434 90.4919C194.553 84.334 188.101 78.6183 181.028 73.6069C167.357 63.9115 152.149 57.4097 136.795 53.1516C139.31 52.8896 141.908 52.7422 144.586 52.7422C169.856 52.7422 191.499 68.3661 200.434 90.4919Z" fill="white"/>
<path d="M211.409 109.733C211.409 127.486 205.104 142.177 194.846 152.625C189.374 158.226 182.743 162.583 175.343 165.563C168.336 168.38 160.609 169.936 152.508 170.1C152.067 170.116 151.626 170.116 151.185 170.116C126.16 170.116 104.713 154.82 95.5987 133.038C92.5931 125.865 90.9434 117.987 90.9434 109.717C90.9434 97.9414 93.7692 86.9522 99.1105 77.6499C100.483 75.2261 102.051 72.9169 103.766 70.7387L105.84 68.2657L105.922 68.1511C116.327 56.5396 131.779 49.3008 151.201 49.3008C184.458 49.3335 211.409 76.3725 211.409 109.733Z" fill="#111827"/>
<path d="M200.041 113.275C199.975 113.275 199.91 113.259 199.845 113.242L188.656 109.868C188.443 109.803 188.264 109.623 188.198 109.41C188.133 109.197 188.182 108.951 188.329 108.771L197.427 98.0931C197.672 97.8147 198.097 97.782 198.375 98.0112C198.652 98.2569 198.685 98.6827 198.456 98.9611L190.028 108.837L200.22 111.916C200.58 112.03 200.776 112.407 200.678 112.767C200.612 113.078 200.335 113.275 200.041 113.275Z" fill="white"/>
<path d="M112.294 80.3192C112.18 80.3192 112.065 80.2865 111.951 80.2209C111.624 80.0244 111.526 79.615 111.706 79.2874L121.392 62.6317C121.588 62.3042 121.997 62.2059 122.323 62.386C122.65 62.5826 122.748 62.992 122.568 63.3195L112.882 79.9753C112.752 80.2046 112.523 80.3192 112.294 80.3192Z" fill="white"/>
<path d="M151.184 186.709C108.846 186.709 74.3965 152.186 74.3965 109.736C74.3965 94.8653 77.9901 80.748 84.7851 68.8908C86.5166 65.8283 88.5257 62.864 90.7309 60.0798L93.475 56.8044C107.555 41.0658 127.516 32.7461 151.184 32.7461C193.523 32.7461 227.956 67.2859 227.956 109.736C227.956 142.736 210.772 169.333 181.975 180.912C172.909 184.547 163.108 186.496 152.867 186.693C152.311 186.709 151.74 186.709 151.184 186.709ZM151.184 34.089C127.908 34.089 108.307 42.2449 94.4878 57.6887L91.7763 60.9151C89.6201 63.6337 87.6437 66.5489 85.9449 69.5459C79.2641 81.2066 75.7359 95.0945 75.7359 109.719C75.7359 151.416 109.581 185.334 151.168 185.334C151.723 185.317 152.262 185.334 152.818 185.317C162.912 185.121 172.533 183.205 181.452 179.634C209.71 168.268 226.584 142.13 226.584 109.719C226.6 68.0228 192.772 34.089 151.184 34.089Z" fill="#111827"/>
<path d="M151.185 170.79C126.569 170.79 104.501 156.084 94.9784 133.303C91.8422 125.835 90.2578 117.892 90.2578 109.719C90.2578 97.9278 93.1163 86.7257 98.5067 77.3087C99.8461 74.934 101.431 72.5757 103.227 70.3156L105.367 67.7608C116.589 55.2321 132.417 48.6484 151.185 48.6484C184.768 48.6484 212.096 76.0477 212.096 109.736C212.096 126.948 206.297 141.95 195.337 153.103C189.832 158.737 183.2 163.142 175.605 166.188C168.434 169.071 160.675 170.61 152.524 170.774C152.067 170.79 151.626 170.79 151.185 170.79ZM151.185 50.0078C132.809 50.0078 117.34 56.444 106.412 68.6288L106.363 68.6943L104.273 71.1836C102.541 73.3782 100.989 75.671 99.6827 77.9966C94.4067 87.2006 91.6136 98.1734 91.6136 109.736C91.6136 117.728 93.1653 125.491 96.2199 132.795C105.53 155.068 127.108 169.448 151.185 169.448C151.61 169.448 152.051 169.448 152.492 169.431C160.479 169.267 168.075 167.761 175.099 164.944C182.514 161.947 188.999 157.656 194.373 152.153C205.088 141.262 210.74 126.588 210.74 109.736C210.74 76.801 184.017 50.0078 151.185 50.0078Z" fill="#111827"/>
<path d="M182.662 172.758L183.789 179.849L200.042 198.765L265.494 195.44V188.234" fill="white"/>
<path d="M200.041 199.454C199.845 199.454 199.666 199.372 199.535 199.225L183.282 180.309C183.2 180.211 183.151 180.096 183.135 179.981L182.008 172.874C181.943 172.497 182.204 172.153 182.563 172.104C182.939 172.038 183.282 172.3 183.331 172.661L184.426 179.572L200.335 198.095L264.807 194.819V188.268C264.807 187.892 265.117 187.597 265.477 187.597C265.852 187.597 266.146 187.908 266.146 188.268V195.474C266.146 195.835 265.869 196.129 265.509 196.146L200.074 199.47C200.074 199.454 200.058 199.454 200.041 199.454Z" fill="#111827"/>
<path d="M182.662 172.754L246.627 170.117L265.494 188.23L200.042 189.59L182.662 172.754Z" fill="white"/>
<path d="M200.04 190.266C199.861 190.266 199.697 190.2 199.567 190.069L182.187 173.233C181.991 173.053 181.926 172.758 182.024 172.513C182.122 172.267 182.35 172.087 182.628 172.07L246.593 169.434C246.773 169.434 246.953 169.499 247.083 169.614L265.933 187.743C266.129 187.94 266.195 188.218 266.097 188.48C265.999 188.742 265.754 188.906 265.476 188.906L200.04 190.266C200.057 190.266 200.057 190.266 200.04 190.266ZM184.261 173.364L200.318 188.906L263.842 187.596L246.381 170.809L184.261 173.364Z" fill="#111827"/>
<path d="M200.039 198.761V189.59L265.491 188.23V195.436L200.039 198.761Z" fill="#111827"/>
<path d="M215.723 182.354C215.364 182.354 215.07 182.076 215.053 181.715C215.037 181.339 215.315 181.027 215.69 181.011L239.441 179.799L234.769 174.509C234.524 174.231 234.54 173.805 234.818 173.559C235.096 173.314 235.52 173.33 235.765 173.609L241.384 179.947C241.564 180.143 241.597 180.422 241.499 180.651C241.401 180.896 241.172 181.06 240.911 181.06L215.756 182.338C215.756 182.354 215.739 182.354 215.723 182.354Z" fill="#111827"/>
<path d="M221.684 184.435C221.635 184.435 221.57 184.435 221.521 184.418L214.676 182.666C214.431 182.6 214.252 182.42 214.186 182.175C214.121 181.929 214.203 181.683 214.382 181.503L218.303 177.966C218.58 177.72 219.005 177.736 219.25 178.015C219.495 178.293 219.479 178.719 219.201 178.965L216.212 181.667L221.847 183.108C222.207 183.206 222.435 183.567 222.337 183.927C222.256 184.222 221.978 184.435 221.684 184.435Z" fill="#111827"/>
<path d="M176.928 51.5155V57.0347L272.598 60.3593L298.488 35.3511V28.8984" fill="white"/>
<path d="M272.597 61.0342H272.581L176.927 57.7096C176.567 57.6933 176.273 57.3985 176.273 57.0382V51.519C176.273 51.1423 176.584 50.8475 176.943 50.8475C177.319 50.8475 177.613 51.1587 177.613 51.519V56.3831L272.336 59.6749L297.817 35.0598V28.9019C297.817 28.5253 298.128 28.2305 298.487 28.2305C298.863 28.2305 299.157 28.5416 299.157 28.9019V35.3546C299.157 35.5348 299.075 35.7149 298.945 35.8459L273.055 60.8541C272.924 60.9687 272.761 61.0342 272.597 61.0342Z" fill="#111827"/>
<path d="M207.914 27.2109L176.928 51.5149L272.565 54.5611L298.488 28.8978L207.914 27.2109Z" fill="white"/>
<path d="M272.565 55.2346H272.549L176.911 52.1885C176.634 52.1721 176.372 51.9919 176.291 51.7299C176.209 51.4515 176.291 51.1567 176.519 50.9929L207.489 26.689C207.604 26.5907 207.751 26.5252 207.914 26.5416L298.488 28.2284C298.766 28.2284 298.994 28.4086 299.109 28.6542C299.207 28.8999 299.141 29.1947 298.962 29.3912L273.039 55.0545C272.908 55.1691 272.729 55.2346 272.565 55.2346ZM178.822 50.8946L272.288 53.8589L296.871 29.5386L208.143 27.8845L178.822 50.8946Z" fill="#111827"/>
<path d="M269.527 33.418L265.492 37.0046H255.724L252.359 41.1481H271.879L278.625 33.418H269.527Z" fill="#111827"/>
<path d="M231.647 31.4883L227.939 35.3533H234.343L237.707 31.4883H231.647Z" fill="#111827"/>
<path d="M213.81 43.2109L210.854 46.7157L247.9 47.7311L250.938 43.8988L213.81 43.2109Z" fill="#111827"/>
<path d="M227.285 33.4201L224.068 37.2851H215.721L219.69 33.2891L227.285 33.4201Z" fill="#111827"/>
<path d="M197.82 40.8906L194.455 43.3145H207.784L209.679 40.8906H197.82Z" fill="#111827"/>
<path d="M272.566 54.5617L298.489 28.8984V35.3511L272.599 60.3593L272.566 54.5617Z" fill="#111827"/>
<path d="M190.568 156.541C185.422 160.848 182.727 162.584 175.344 165.565C168.337 168.382 160.61 169.938 152.509 170.102C152.068 170.118 151.626 170.118 151.185 170.118C126.161 170.118 104.714 154.822 95.5996 133.04C95.5996 133.04 95.5996 109.702 120.575 111.405L164.073 121.133C180.424 127.832 190.143 155.788 190.568 156.541Z" fill="white"/>
<path d="M151.185 170.791C126.569 170.791 104.502 156.084 94.9787 133.304C94.946 133.222 94.9297 133.123 94.9297 133.042C94.9297 132.632 95.0114 122.806 102.002 116.255C106.478 112.062 112.734 110.195 120.624 110.736L164.22 120.48C174.102 124.509 183.527 136.939 190.861 155.478C191.025 155.888 191.123 156.134 191.172 156.232C191.302 156.51 191.253 156.871 191.008 157.067C185.879 161.358 183.086 163.176 175.605 166.189C168.434 169.072 160.676 170.611 152.525 170.775C152.067 170.791 151.626 170.791 151.185 170.791ZM96.2854 132.927C105.629 155.118 127.157 169.448 151.185 169.448C151.61 169.465 152.051 169.448 152.492 169.432C160.48 169.268 168.075 167.761 175.099 164.945C182.286 162.046 184.932 160.375 189.767 156.346C189.718 156.232 189.669 156.117 189.62 155.97C182.417 137.775 173.253 125.623 163.828 121.758L120.428 112.062C113.028 111.571 107.115 113.307 102.934 117.237C96.7755 123.019 96.3181 131.748 96.2854 132.927Z" fill="#111827"/>
<path d="M159.516 81.7452C157.997 74.4082 153.26 67.2349 137.334 70.2811C121.408 73.3273 115.446 81.4504 117.471 92.0957C119.497 102.741 120.134 103.265 120.134 103.265C117.651 104.723 117.291 106.606 117.553 108.014C117.912 109.931 119.709 112.027 123.597 111.748L126.667 123.245L152.868 129.19C155.857 128.306 159.205 126.947 161.509 124.965C168.14 119.2 164.351 105.099 159.516 81.7452Z" fill="white"/>
<path d="M152.867 129.864C152.573 129.864 152.312 129.668 152.214 129.373C152.1 129.012 152.312 128.636 152.671 128.538C156.363 127.44 159.189 126.065 161.051 124.443C166.768 119.497 164.285 107.755 160.185 88.3148C159.744 86.2513 159.303 84.1059 158.829 81.8786C156.82 72.1504 149.813 68.5638 137.431 70.9385C122.714 73.7554 116.017 81.0269 118.108 91.967C119.856 101.122 120.542 102.661 120.656 102.858C120.754 102.989 120.803 103.153 120.787 103.316C120.77 103.529 120.64 103.742 120.46 103.857C118.206 105.183 117.993 106.788 118.206 107.902C118.533 109.605 120.117 111.341 123.547 111.079C123.907 111.047 124.25 111.325 124.266 111.702C124.299 112.078 124.021 112.406 123.645 112.422C119.317 112.733 117.291 110.31 116.883 108.148C116.654 106.969 116.703 104.774 119.284 103.005C118.696 101.466 117.863 97.8628 116.801 92.229C114.58 80.6011 121.832 72.5599 137.203 69.612C150.287 67.1062 158.013 71.135 160.185 81.6001C160.643 83.8275 161.1 85.9729 161.525 88.0364C165.723 107.968 168.254 120.005 161.949 125.475C159.94 127.227 156.951 128.685 153.063 129.848C152.998 129.864 152.933 129.864 152.867 129.864Z" fill="#111827"/>
<path d="M155.873 73.9205C152.688 70.3994 147.134 68.4013 137.334 70.2683C121.408 73.3145 115.446 81.4377 117.471 92.0829C119.497 102.728 119.497 102.728 119.497 102.728L121.587 102.483C123.188 101.975 124.25 101.86 125.54 101.68C126.553 101.533 127.255 101.958 127.125 100.927C126.994 99.8949 126.88 98.8631 126.765 97.8477C128.84 97.0289 130.686 95.5549 131.731 93.5733C132.776 91.5425 132.123 88.6273 129.461 88.6273C128.905 88.6273 128.676 89.1841 128.873 89.6427C129.33 90.7236 129.346 91.8045 129.02 92.738C128.676 93.5733 128.007 94.2447 127.092 94.6542C126.945 94.7197 126.847 94.8343 126.798 94.9817C126.7 95.0472 126.602 95.0963 126.504 95.1455C126.161 90.9365 126.259 87.1697 127.696 84.8278C134.884 85.0898 141.842 82.3876 147.053 77.2778C149.715 77.0486 152.214 77.0322 154.223 77.2123C156.02 77.4088 157.066 75.2634 155.873 73.9205Z" fill="#111827"/>
<path d="M151.447 104.035C151.12 104.035 150.826 103.79 150.777 103.446C150.728 103.069 150.989 102.725 151.349 102.676C152.607 102.496 153.587 102.021 153.979 101.398C154.207 101.038 154.24 100.645 154.093 100.17C153.766 99.1384 151.349 98.8599 150.205 98.9091C149.846 98.8927 149.568 98.6634 149.519 98.3195L148.67 92.178C148.621 91.8013 148.882 91.4574 149.242 91.4083C149.601 91.3591 149.944 91.6212 150.009 91.9815L150.777 97.5498C152.051 97.5989 154.812 97.9101 155.383 99.7607C155.645 100.612 155.563 101.415 155.122 102.103C154.501 103.085 153.227 103.773 151.528 104.002C151.496 104.019 151.479 104.035 151.447 104.035Z" fill="#111827"/>
<path d="M155.954 93.5898L156.003 94.9491C156.052 96.6851 158.764 96.6032 158.698 94.8672L158.649 93.5079C158.6 91.7719 155.889 91.8538 155.954 93.5898Z" fill="#111827"/>
<path d="M137.97 96.5179L138.019 97.8772C138.068 99.6132 140.779 99.5313 140.714 97.7954L140.665 96.436C140.616 94.6837 137.905 94.7819 137.97 96.5179Z" fill="#111827"/>
<path d="M144.014 111.264C142.985 111.248 141.596 110.969 141.367 109.79C141.204 108.938 139.848 109.119 140.028 109.97C140.387 111.788 142.135 112.574 143.85 112.607C144.7 112.607 144.879 111.264 144.014 111.264Z" fill="#111827"/>
<path d="M117.798 93.8C125.475 89.2307 134.867 87.1508 143.263 84.727C148.555 83.1875 153.913 81.8773 159.303 80.8292C157.572 73.8197 152.59 67.3506 137.334 70.2822C121.408 73.3284 115.446 81.4515 117.471 92.0968C117.569 92.7027 117.683 93.2596 117.798 93.8Z" fill="white"/>
<path d="M117.797 94.4891C117.699 94.4891 117.601 94.4727 117.52 94.4236C117.324 94.3417 117.177 94.1452 117.128 93.9323L116.801 92.2126C114.58 80.5847 121.832 72.5435 137.203 69.5956C149.895 67.1553 157.555 70.8894 159.956 80.6503C160.006 80.8304 159.973 81.0269 159.875 81.1743C159.777 81.3381 159.613 81.4364 159.434 81.4691C154.305 82.4681 148.931 83.7783 143.459 85.3505C142.005 85.7764 140.519 86.1858 139.016 86.5952C131.845 88.5769 124.429 90.624 118.157 94.3581C118.026 94.4563 117.912 94.4891 117.797 94.4891ZM144.21 70.2343C142.168 70.2343 139.914 70.4799 137.448 70.9385C122.73 73.7554 116.033 81.0269 118.124 91.967L118.271 92.7367C124.511 89.2156 131.682 87.2339 138.624 85.3178C140.127 84.9084 141.613 84.4989 143.067 84.0731C148.326 82.55 153.504 81.2726 158.454 80.2899C156.559 73.5589 151.855 70.2343 144.21 70.2343Z" fill="#111827"/>
<path d="M142.285 170.139C142.187 170.139 142.073 170.122 141.975 170.057C141.648 169.893 141.517 169.483 141.681 169.139C141.713 169.09 144.261 164.095 148.704 152.386C151.89 144.033 155.483 134.551 153.637 130.898C153.278 130.194 152.706 129.736 151.922 129.523C141.109 126.558 139.067 119.041 137.858 114.554C137.466 113.096 137.058 111.59 136.568 111.59C136.388 111.573 136.225 111.639 136.094 111.884C135.081 113.751 137.074 120.941 140.553 126.018C140.766 126.329 140.684 126.755 140.374 126.968C140.063 127.181 139.639 127.099 139.426 126.788C136.143 122.006 133.383 114.013 134.885 111.246C135.245 110.574 135.833 110.23 136.584 110.247C138.071 110.279 138.528 111.934 139.149 114.21C140.292 118.419 142.203 125.478 152.265 128.229C153.441 128.557 154.307 129.244 154.83 130.309C156.953 134.501 153.392 143.837 149.962 152.893C145.486 164.685 142.906 169.729 142.873 169.778C142.775 170.007 142.53 170.139 142.285 170.139Z" fill="#111827"/>
<path d="M135.88 125.939C135.668 125.939 135.439 125.824 135.309 125.627C131.96 120.567 129.396 112.329 129.837 109.643C130.18 107.612 131.209 107.285 131.797 107.268C133.463 107.17 135.309 109.692 135.799 111.92C135.88 112.28 135.652 112.64 135.292 112.722C134.933 112.804 134.574 112.575 134.492 112.214C134.051 110.249 132.515 108.562 131.846 108.628C131.568 108.628 131.307 109.103 131.192 109.872C130.833 111.985 133.152 119.879 136.452 124.89C136.664 125.202 136.566 125.627 136.256 125.824C136.142 125.906 136.011 125.939 135.88 125.939Z" fill="#111827"/>
<path d="M131.502 125.49C131.29 125.49 131.077 125.391 130.947 125.195C127.729 120.495 126.014 112.945 126.014 110.897C126.014 109.227 126.308 107.082 127.68 106.345C128.529 105.886 129.591 106.066 130.816 106.885C131.126 107.098 131.208 107.507 131.012 107.819C130.8 108.13 130.391 108.212 130.081 108.015C129.542 107.655 128.807 107.294 128.333 107.54C127.745 107.851 127.386 109.145 127.369 110.897C127.369 112.601 128.97 119.905 132.057 124.425C132.27 124.736 132.188 125.162 131.878 125.359C131.763 125.457 131.633 125.49 131.502 125.49Z" fill="#111827"/>
<path d="M119.12 161.542C119.022 161.542 118.908 161.525 118.81 161.476C118.483 161.312 118.352 160.903 118.516 160.559L119.675 158.283C123.155 151.502 131.289 135.6 129.901 132.783C127.026 126.92 124.837 119.108 123.89 115.767L123.661 114.948C122.256 110.002 122.305 106.972 123.841 105.924C124.788 105.269 126.111 105.531 127.549 106.645C127.843 106.874 127.908 107.3 127.679 107.595C127.451 107.89 127.026 107.955 126.732 107.726C125.817 107.022 125.017 106.776 124.608 107.054C124.363 107.218 123.204 108.381 124.968 114.588L125.196 115.407C126.127 118.715 128.3 126.445 131.109 132.194C132.661 135.371 126.911 147.13 120.884 158.921L119.724 161.198C119.61 161.411 119.365 161.542 119.12 161.542Z" fill="#111827"/>
<path d="M161.378 85.5154C150.156 85.5318 117.488 98.5518 117.488 98.5518L115.479 92.2465C115.479 92.2465 147.804 80.4057 159.859 79.6523L161.378 85.5154Z" fill="white"/>
<path d="M117.47 99.2237C117.372 99.2237 117.274 99.2073 117.176 99.1582C117.013 99.0763 116.882 98.9289 116.817 98.7488L114.808 92.4435C114.693 92.0996 114.873 91.7229 115.216 91.6083C116.539 91.117 147.771 79.7183 159.793 78.9814C160.087 78.965 160.413 79.1779 160.495 79.4891L162.014 85.3521C162.063 85.5487 162.03 85.7779 161.9 85.9417C161.769 86.1055 161.573 86.2038 161.361 86.2038C150.4 86.2201 118.042 99.0599 117.715 99.191C117.65 99.2073 117.552 99.2237 117.47 99.2237ZM116.311 92.6564L117.895 97.6515C122.616 95.8009 149.437 85.4176 160.495 84.8608L159.335 80.3571C148.048 81.3397 120.737 91.0678 116.311 92.6564Z" fill="#111827"/>
<path d="M139.097 87.7894C138.068 88.1988 137.088 88.6738 136.141 89.2797C135.422 89.7547 136.288 90.7865 137.007 90.3115C137.84 89.7711 138.754 89.378 139.653 89.0013C140.469 88.6902 139.898 87.4619 139.097 87.7894Z" fill="#111827"/>
<path d="M158.812 82.8965C158.061 82.5362 157.244 82.3233 156.526 81.9139C155.774 81.4881 154.974 82.569 155.725 83.0112C156.558 83.4861 157.457 83.7645 158.306 84.1739C159.106 84.5342 159.596 83.2732 158.812 82.8965Z" fill="#111827"/>
<path d="M144.424 158.297C139.197 158.297 130.915 155.775 124.496 150.157C124.218 149.912 124.186 149.486 124.431 149.208C124.676 148.929 125.1 148.896 125.378 149.142C133.006 155.824 143.656 158.002 147.331 156.528C147.674 156.397 148.067 156.561 148.214 156.905C148.361 157.249 148.181 157.642 147.838 157.789C146.988 158.117 145.812 158.297 144.424 158.297Z" fill="#111827"/>
<path d="M120.133 103.941C119.855 103.941 119.594 103.777 119.496 103.498C119.365 103.154 119.545 102.761 119.888 102.63C120.084 102.565 124.641 100.878 126.569 100.534C126.944 100.469 127.287 100.714 127.353 101.074C127.418 101.451 127.173 101.795 126.814 101.861C125.001 102.188 120.411 103.875 120.362 103.908C120.28 103.924 120.198 103.941 120.133 103.941Z" fill="#111827"/>
<path d="M166.931 168.352C166.899 168.352 166.882 168.352 166.85 168.352C166.474 168.303 166.213 167.959 166.262 167.598L167.389 158.542C167.438 158.165 167.765 157.919 168.14 157.952C168.516 158.001 168.777 158.345 168.728 158.705L167.601 167.762C167.569 168.106 167.274 168.352 166.931 168.352Z" fill="#111827"/>
<path d="M115.363 158.688C115.38 158.672 115.38 158.672 115.396 158.672C115.657 158.41 115.641 157.984 115.38 157.722C115.347 157.689 112.129 154.398 114.089 144.85C114.171 144.489 113.926 144.129 113.567 144.047C113.207 143.965 112.848 144.211 112.766 144.571C111.28 151.81 112.603 155.757 113.599 157.526C114.187 157.919 114.775 158.312 115.363 158.688Z" fill="#111827"/>
<path d="M108.078 127.818V137.284H51.0058L26.7656 116.599V106.789" fill="white"/>
<path d="M108.077 137.971H51.0044C50.841 137.971 50.694 137.906 50.5633 137.807L26.3231 117.123C26.1761 116.992 26.0781 116.812 26.0781 116.599V106.789C26.0781 106.412 26.3885 106.117 26.7478 106.117C27.1072 106.117 27.4175 106.428 27.4175 106.789V116.288L51.2331 136.612H107.391V127.817C107.391 127.44 107.701 127.146 108.06 127.146C108.42 127.146 108.73 127.457 108.73 127.817V137.3C108.763 137.66 108.452 137.971 108.077 137.971Z" fill="#111827"/>
<path d="M26.7656 106.789H90.9434L108.078 127.818L50.3361 129.193L26.7656 106.789Z" fill="white"/>
<path d="M50.3358 129.864C50.1562 129.864 49.9928 129.799 49.8785 129.684L26.308 107.28C26.112 107.083 26.0466 106.789 26.1446 106.543C26.2426 106.281 26.4877 106.117 26.7653 106.117H90.9431C91.1391 106.117 91.3351 106.215 91.4658 106.363L108.617 127.391C108.78 127.588 108.813 127.866 108.715 128.096C108.601 128.325 108.372 128.489 108.111 128.489L50.3358 129.864ZM28.4641 107.46L50.5972 128.505L106.689 127.162L90.6164 107.46H28.4641Z" fill="#111827"/>
<path d="M58.0636 122.903C57.8676 122.903 57.6716 122.821 57.5409 122.657L50.1414 113.682C49.9781 113.486 49.9454 113.207 50.0434 112.978C50.1414 112.749 50.3701 112.585 50.6151 112.569C51.5952 112.503 60.2687 112.061 61.7062 115.533C63.1926 119.103 58.6516 122.608 58.4556 122.755C58.3576 122.854 58.2106 122.903 58.0636 122.903ZM52.0689 113.879L58.1616 121.265C59.1743 120.348 61.3305 118.088 60.4811 116.057C59.7787 114.354 55.3684 113.846 52.0689 113.879Z" fill="#111827"/>
<path d="M70.6385 121.17C70.4098 121.17 70.1975 121.056 70.0668 120.859L65.1501 113.309C65.0195 113.113 65.0031 112.851 65.1175 112.621C65.2318 112.408 65.4442 112.261 65.6892 112.261L72.7783 111.95C73.154 111.933 73.4643 112.228 73.4807 112.605C73.497 112.982 73.203 113.293 72.8273 113.309L66.9306 113.571L70.9815 119.795L79.5407 119.107C79.9164 119.074 80.2431 119.352 80.2758 119.729C80.3084 120.106 80.0308 120.433 79.6551 120.466L70.6875 121.187C70.6712 121.17 70.6548 121.17 70.6385 121.17Z" fill="#111827"/>
<path d="M93.4739 119.872H84.5063C84.2776 119.872 84.0653 119.758 83.951 119.577L79.0343 112.224C78.822 111.913 78.9036 111.487 79.214 111.29C79.5243 111.078 79.949 111.159 80.1451 111.471L84.8657 118.529H93.4739C93.8496 118.529 94.1436 118.84 94.1436 119.201C94.1599 119.561 93.8496 119.872 93.4739 119.872Z" fill="#111827"/>
<path d="M67.4204 116.235C67.0773 116.235 66.7833 115.973 66.7507 115.613C66.718 115.236 66.9957 114.909 67.3714 114.876L72.7617 114.401C73.1537 114.368 73.4641 114.647 73.4967 115.023C73.5294 115.4 73.2517 115.728 72.876 115.76L67.4857 116.235C67.4694 116.235 67.4367 116.235 67.4204 116.235Z" fill="#111827"/>
<path d="M26.7656 106.789L50.3361 129.193L51.0058 137.284L26.7656 116.599V106.789Z" fill="#111827"/>
</svg>
