<svg width="16" height="14" viewBox="0 0 16 14" fill="none" xmlns="http://www.w3.org/2000/svg">
<path d="M10.3866 6.99998C10.3866 8.31998 9.3199 9.38665 7.9999 9.38665C6.6799 9.38665 5.61323 8.31998 5.61323 6.99998C5.61323 5.67998 6.6799 4.61331 7.9999 4.61331C9.3199 4.61331 10.3866 5.67998 10.3866 6.99998Z" stroke="#454545" stroke-width="1.5" stroke-linecap="round" stroke-linejoin="round"/>
<path d="M7.9999 12.5133C10.3532 12.5133 12.5466 11.1266 14.0732 8.72665C14.6732 7.78665 14.6732 6.20665 14.0732 5.26665C12.5466 2.86665 10.3532 1.47998 7.9999 1.47998C5.64656 1.47998 3.45323 2.86665 1.92656 5.26665C1.32656 6.20665 1.32656 7.78665 1.92656 8.72665C3.45323 11.1266 5.64656 12.5133 7.9999 12.5133Z" stroke="#454545" stroke-width="1.5" stroke-linecap="round" stroke-linejoin="round"/>
</svg>
