<svg width="32" height="32" viewBox="0 0 32 32" fill="none" xmlns="http://www.w3.org/2000/svg">
<rect x="0.5" y="0.5" width="31" height="31" rx="7.5" fill="white"/>
<rect x="0.5" y="0.5" width="31" height="31" rx="7.5" stroke="#2563EB"/>
<path d="M23.1919 20.9419C23.436 20.6979 23.436 20.3021 23.1919 20.0581C22.9479 19.814 22.5521 19.814 22.3081 20.0581L22.75 20.5L23.1919 20.9419ZM20.5 22.75L20.0581 23.1919C20.1753 23.3092 20.3342 23.375 20.5 23.375C20.6658 23.375 20.8247 23.3092 20.9419 23.1919L20.5 22.75ZM18.6919 20.0581C18.4479 19.814 18.0521 19.814 17.8081 20.0581C17.564 20.3021 17.564 20.6979 17.8081 20.9419L18.25 20.5L18.6919 20.0581ZM13.75 10.875C13.4048 10.875 13.125 11.1548 13.125 11.5C13.125 11.8452 13.4048 12.125 13.75 12.125V11.5V10.875ZM12.125 13.75C12.125 13.4048 11.8452 13.125 11.5 13.125C11.1548 13.125 10.875 13.4048 10.875 13.75H11.5H12.125ZM22.75 11.5H22.125C22.125 12.3975 21.3975 13.125 20.5 13.125V13.75V14.375C22.0878 14.375 23.375 13.0878 23.375 11.5H22.75ZM20.5 13.75V13.125C19.6025 13.125 18.875 12.3975 18.875 11.5H18.25H17.625C17.625 13.0878 18.9122 14.375 20.5 14.375V13.75ZM18.25 11.5H18.875C18.875 10.6025 19.6025 9.875 20.5 9.875V9.25V8.625C18.9122 8.625 17.625 9.91218 17.625 11.5H18.25ZM20.5 9.25V9.875C21.3975 9.875 22.125 10.6025 22.125 11.5H22.75H23.375C23.375 9.91218 22.0878 8.625 20.5 8.625V9.25ZM13.75 20.5H13.125C13.125 21.3975 12.3975 22.125 11.5 22.125V22.75V23.375C13.0878 23.375 14.375 22.0878 14.375 20.5H13.75ZM11.5 22.75V22.125C10.6025 22.125 9.875 21.3975 9.875 20.5H9.25H8.625C8.625 22.0878 9.91218 23.375 11.5 23.375V22.75ZM9.25 20.5H9.875C9.875 19.6025 10.6025 18.875 11.5 18.875V18.25V17.625C9.91218 17.625 8.625 18.9122 8.625 20.5H9.25ZM11.5 18.25V18.875C12.3975 18.875 13.125 19.6025 13.125 20.5H13.75H14.375C14.375 18.9122 13.0878 17.625 11.5 17.625V18.25ZM22.75 20.5L22.3081 20.0581L20.0581 22.3081L20.5 22.75L20.9419 23.1919L23.1919 20.9419L22.75 20.5ZM20.5 22.75L20.9419 22.3081L18.6919 20.0581L18.25 20.5L17.8081 20.9419L20.0581 23.1919L20.5 22.75ZM20.5 22.75H21.125L21.125 13.75H20.5H19.875L19.875 22.75H20.5ZM10 9.25V9.875H13V9.25V8.625H10V9.25ZM13.75 10H13.125V13H13.75H14.375V10H13.75ZM13 13.75V13.125H10V13.75V14.375H13V13.75ZM9.25 13H9.875V10H9.25H8.625V13H9.25ZM10 13.75V13.125C9.93096 13.125 9.875 13.069 9.875 13H9.25H8.625C8.625 13.7594 9.24061 14.375 10 14.375V13.75ZM13.75 13H13.125C13.125 13.069 13.069 13.125 13 13.125V13.75V14.375C13.7594 14.375 14.375 13.7594 14.375 13H13.75ZM13 9.25V9.875C13.069 9.875 13.125 9.93096 13.125 10H13.75H14.375C14.375 9.24061 13.7594 8.625 13 8.625V9.25ZM10 9.25V8.625C9.24061 8.625 8.625 9.24061 8.625 10H9.25H9.875C9.875 9.93096 9.93096 9.875 10 9.875V9.25ZM13.75 11.5V12.125H18.25V11.5V10.875H13.75V11.5ZM11.5 13.75H10.875V18.25H11.5H12.125V13.75H11.5Z" fill="#2563EB"/>
</svg>
