<svg width="20" height="20" viewBox="0 0 20 20" fill="none" xmlns="http://www.w3.org/2000/svg">
<path d="M3.33268 3.33301H16.666C17.5827 3.33301 18.3327 4.08301 18.3327 4.99967V14.9997C18.3327 15.9163 17.5827 16.6663 16.666 16.6663H3.33268C2.41602 16.6663 1.66602 15.9163 1.66602 14.9997V4.99967C1.66602 4.08301 2.41602 3.33301 3.33268 3.33301Z" fill="#005AA6"/>
<path d="M18.3327 4.99967L9.99935 10.833L1.66602 4.99967" fill="#005AA6"/>
<path d="M18.3327 4.99967C18.3327 4.08301 17.5827 3.33301 16.666 3.33301H3.33268C2.41602 3.33301 1.66602 4.08301 1.66602 4.99967M18.3327 4.99967V14.9997C18.3327 15.9163 17.5827 16.6663 16.666 16.6663H3.33268C2.41602 16.6663 1.66602 15.9163 1.66602 14.9997V4.99967M18.3327 4.99967L9.99935 10.833L1.66602 4.99967" stroke="#F5F5F5" stroke-width="1.25" stroke-linecap="round" stroke-linejoin="round"/>
</svg>
