<svg width="20" height="20" viewBox="0 0 20 20" fill="none" xmlns="http://www.w3.org/2000/svg">
<path d="M3.43072 3.33366H5.83174C6.51325 3.33366 7.1261 3.74858 7.37921 4.38134L8.26583 6.59789C8.53037 7.25924 8.27583 8.01483 7.66504 8.38131C7.01739 8.76989 6.76678 9.59816 7.19068 10.2233C7.88092 11.2411 8.75853 12.1188 9.77641 12.809C10.4015 13.2329 11.2298 12.9823 11.6184 12.3346C11.9848 11.7238 12.7404 11.4693 13.4018 11.7338L15.6183 12.6205C16.2511 12.8736 16.666 13.4864 16.666 14.1679V16.569C16.666 17.037 16.4801 17.4858 16.1491 17.8168C15.8182 18.1477 15.3693 18.3337 14.9013 18.3337C11.4595 18.1245 8.21321 16.6629 5.77498 14.2247C3.33675 11.7865 1.87518 8.54019 1.66602 5.09836C1.66602 4.63034 1.85194 4.18148 2.18289 3.85053C2.51383 3.51958 2.96269 3.33366 3.43072 3.33366Z" fill="#005AA6"/>
</svg>
