<svg width="20" height="20" viewBox="0 0 20 20" fill="none" xmlns="http://www.w3.org/2000/svg">
<g clip-path="url(#clip0_629_4140)">
<path d="M5.9033 16.9207C5.9033 17.7008 5.27094 18.3332 4.49087 18.3332C3.71081 18.3332 3.07844 17.7008 3.07844 16.9207C3.07844 16.1407 3.71081 15.5083 4.49087 15.5083C5.27094 15.5083 5.9033 16.1407 5.9033 16.9207ZM5.9033 16.9207H10.8468C12.0169 16.9207 12.9655 15.9722 12.9655 14.8021C12.9655 13.632 12.0169 12.6835 10.8468 12.6835H3.78466C2.61457 12.6835 1.66602 11.7349 1.66602 10.5648C1.66602 9.39472 2.61457 8.44616 3.78466 8.44616H8.72816M8.72816 8.44616C8.72816 9.22623 9.36053 9.85859 10.1406 9.85859C10.9207 9.85859 11.553 9.22623 11.553 8.44616C11.553 7.6661 10.9207 7.03374 10.1406 7.03374C9.36053 7.03374 8.72816 7.6661 8.72816 8.44616ZM16.214 4.49136C16.214 4.88139 15.8979 5.19758 15.5078 5.19758C15.1178 5.19758 14.8016 4.88139 14.8016 4.49136C14.8016 4.10133 15.1178 3.78515 15.5078 3.78515C15.8979 3.78515 16.214 4.10133 16.214 4.49136ZM15.5078 1.6665C13.9505 1.6665 12.683 2.93342 12.683 4.49136C12.683 5.00362 12.82 5.48441 13.0593 5.89906L15.5078 10.1411L17.9563 5.89906C18.1956 5.48441 18.3327 5.00362 18.3327 4.49136C18.3327 2.93342 17.0651 1.6665 15.5078 1.6665Z" stroke="#005AA6" stroke-width="1.66667" stroke-miterlimit="10" stroke-linecap="round" stroke-linejoin="round"/>
</g>
<defs>
<clipPath id="clip0_629_4140">
<rect width="20" height="20" fill="white"/>
</clipPath>
</defs>
</svg>
