<svg width="20" height="20" viewBox="0 0 20 20" fill="none" xmlns="http://www.w3.org/2000/svg">
<path fill-rule="evenodd" clip-rule="evenodd" d="M18.75 9.61154C18.75 3.87937 16.7308 1.25 10 1.25C3.26923 1.25 1.25 3.87937 1.25 9.61154C1.25 13.6909 2.27268 16.1989 5.28846 17.3059V19.2359C5.28846 19.9463 6.1798 20.2708 6.64152 19.7285L8.19773 17.9007C8.75706 17.9491 9.35703 17.9731 10 17.9731C16.7308 17.9731 18.75 15.3437 18.75 9.61154ZM8.56953 16.5822C9.01571 16.6177 9.492 16.6352 10 16.6352C15.6953 16.6352 17.4038 14.4266 17.4038 9.61154C17.4038 4.79652 15.6953 2.58785 10 2.58785C4.30473 2.58785 2.59615 4.79652 2.59615 9.61154C2.59615 13.0149 3.44978 15.1162 5.96154 16.0557V18.9149C5.96154 19.1642 6.27429 19.278 6.4363 19.0878L8.56953 16.5822Z" fill="#BFC8D0"/>
<path d="M10 16.1592C9.4854 16.1592 9.00293 16.1414 8.55096 16.1053L6.39001 18.6531C6.2259 18.8466 5.90909 18.7308 5.90909 18.4774V15.57C3.36472 14.6146 2.5 12.4779 2.5 9.01712C2.5 4.12091 4.23077 1.875 10 1.875C15.7692 1.875 17.5 4.12091 17.5 9.01712C17.5 13.9133 15.7692 16.1592 10 16.1592Z" fill="#9179EE"/>
<path fill-rule="evenodd" clip-rule="evenodd" d="M18.75 8.98654C18.75 3.25437 16.7308 0.625 10 0.625C3.26923 0.625 1.25 3.25437 1.25 8.98654C1.25 13.0659 2.27268 15.5739 5.28846 16.6809V18.6109C5.28846 19.3213 6.1798 19.6458 6.64152 19.1035L8.19773 17.2757C8.75706 17.3241 9.35703 17.3481 10 17.3481C16.7308 17.3481 18.75 14.7187 18.75 8.98654ZM8.56953 15.9572C9.01571 15.9927 9.492 16.0102 10 16.0102C15.6953 16.0102 17.4038 13.8016 17.4038 8.98654C17.4038 4.17152 15.6953 1.96285 10 1.96285C4.30473 1.96285 2.59615 4.17152 2.59615 8.98654C2.59615 12.3899 3.44978 14.4912 5.96154 15.4307V18.2899C5.96154 18.5392 6.27429 18.653 6.4363 18.4628L8.56953 15.9572Z" fill="white"/>
<path d="M6.18457 5.03027C6.27451 5.02883 6.32194 5.05093 6.34082 5.06738C6.57544 5.27311 6.93954 5.63692 7.18457 5.94727C7.31108 6.10752 7.46347 6.31147 7.59082 6.48828C7.65453 6.57673 7.71113 6.65692 7.75391 6.7207C7.77513 6.75235 7.79214 6.77851 7.80469 6.79883C7.81883 6.82175 7.82279 6.8294 7.82129 6.82617C7.81762 6.8183 7.82416 6.83266 7.83008 6.87109C7.8354 6.90575 7.83857 6.94857 7.83496 6.99316C7.82756 7.08442 7.79711 7.15761 7.74316 7.20703C7.56024 7.37455 7.31241 7.52992 7.21484 7.58398L7.18945 7.59766L7.16699 7.61621C6.99413 7.75921 6.73493 8.15255 6.96191 8.6377C7.15113 9.04206 7.57232 9.86745 8.3125 10.4893C9.0367 11.0976 9.8104 11.4251 10.3184 11.5322L10.3506 11.5381H10.3828C10.3761 11.5381 10.3761 11.5383 10.3887 11.54C10.4007 11.5417 10.4156 11.5438 10.4385 11.5479C10.5868 11.5738 10.9735 11.6523 11.2959 11.3311C11.4926 11.135 11.6718 10.9302 11.7539 10.833C11.8006 10.7854 11.9874 10.6673 12.2266 10.748C12.6609 10.8949 13.1771 11.2266 13.4268 11.3945C13.6201 11.5246 14.0577 11.8381 14.2549 11.9805C14.2713 11.9923 14.3103 12.0312 14.3311 12.085C14.3476 12.1279 14.3562 12.1872 14.3164 12.2725C14.2423 12.4311 14.0163 12.7342 13.7109 12.999C13.4001 13.2685 13.0766 13.4373 12.8174 13.4375C12.8176 13.4372 12.7762 13.4329 12.6748 13.4102C12.5792 13.3887 12.4498 13.3551 12.292 13.3076C11.9766 13.2127 11.5532 13.0648 11.0645 12.8545C10.0861 12.4336 8.85423 11.7676 7.70117 10.7861C6.97587 10.1688 6.29164 9.31467 5.75879 8.51562C5.22146 7.70985 4.8615 6.99582 4.76367 6.66602L4.75684 6.64258L4.74707 6.62109L4.70801 6.50586C4.69627 6.4563 4.68785 6.39741 4.6875 6.33496C4.68684 6.21455 4.71726 6.09931 4.79688 6.00391C5.05931 5.68943 5.33728 5.38054 5.9502 5.08398C6.00725 5.05638 6.09671 5.03173 6.18457 5.03027ZM10.2012 6.64355C11.1819 6.64355 11.9435 7.38652 11.9443 8.26465L11.9434 8.2666C11.9389 8.27081 11.9295 8.27637 11.915 8.27637C11.9007 8.2763 11.8912 8.27079 11.8867 8.2666C11.8854 8.26528 11.885 8.26406 11.8848 8.26367V8.2666C11.8848 7.36381 11.1128 6.66309 10.2012 6.66309C10.187 6.66298 10.1783 6.65749 10.1738 6.65332L10.1729 6.65234H10.1738C10.1784 6.64823 10.1874 6.64366 10.2012 6.64355ZM10.2012 5.35254C11.9391 5.35254 13.3146 6.67391 13.3154 8.26465L13.3145 8.2666C13.31 8.27082 13.3006 8.27637 13.2861 8.27637C13.2718 8.27633 13.2623 8.2708 13.2578 8.2666C13.2565 8.26531 13.2561 8.2641 13.2559 8.26367V8.2666C13.2559 6.65118 11.87 5.37305 10.2012 5.37305C10.1871 5.37294 10.1783 5.36744 10.1738 5.36328L10.1729 5.3623H10.1738C10.1783 5.35817 10.1872 5.35264 10.2012 5.35254ZM10.2012 4.0625C12.6962 4.0625 14.6857 5.96129 14.6865 8.26465L14.6855 8.2666C14.6811 8.27082 14.6717 8.27637 14.6572 8.27637C14.6428 8.27636 14.6334 8.27082 14.6289 8.2666C14.6276 8.26533 14.6272 8.26413 14.627 8.26367V8.2666C14.627 5.93856 12.6271 4.08301 10.2012 4.08301C10.187 4.0829 10.1773 4.07644 10.1729 4.07227H10.1738C10.1783 4.06811 10.1871 4.06261 10.2012 4.0625Z" fill="white" stroke="white" stroke-width="0.625" stroke-linecap="round"/>
</svg>
