<svg width="48" height="48" viewBox="0 0 48 48" fill="none" xmlns="http://www.w3.org/2000/svg">
<rect x="0.400391" width="47.2" height="47.2" rx="23.6" fill="#FE4A23" fill-opacity="0.15"/>
<path d="M24.001 20.0984V24.765M24.001 29.4317H24.0126M22.0069 14.1017L12.1252 30.5984C11.9215 30.9512 11.8136 31.3512 11.8125 31.7587C11.8114 32.1661 11.9169 32.5667 12.1187 32.9207C12.3204 33.2746 12.6114 33.5696 12.9625 33.7762C13.3137 33.9828 13.7128 34.0939 14.1202 34.0984H33.8835C34.2909 34.0939 34.6901 33.9828 35.0412 33.7762C35.3923 33.5696 35.6833 33.2746 35.885 32.9207C36.0868 32.5667 36.1923 32.1661 36.1912 31.7587C36.1901 31.3512 36.0823 30.9512 35.8785 30.5984L25.9969 14.1017C25.7889 13.7588 25.496 13.4754 25.1466 13.2786C24.7971 13.0819 24.4029 12.9785 24.0019 12.9785C23.6008 12.9785 23.2066 13.0819 22.8571 13.2786C22.5077 13.4754 22.2148 13.7588 22.0069 14.1017Z" stroke="#FE4A23" stroke-width="2.33333" stroke-linecap="round" stroke-linejoin="round"/>
</svg>
