<svg width="48" height="48" viewBox="0 0 48 48" fill="none" xmlns="http://www.w3.org/2000/svg">
<rect x="0.400391" width="47.2" height="47.2" rx="23.6" fill="#E8E8E8"/>
<g clip-path="url(#clip0_225_28964)">
<path d="M24.1006 27.9003V31.8003M17.6005 22.7002V17.5001C17.6005 15.7762 18.2853 14.1228 19.5043 12.9038C20.7233 11.6848 22.3767 11 24.1006 11C25.8245 11 27.4779 11.6848 28.6969 12.9038C29.9159 14.1228 30.6007 15.7762 30.6007 17.5001V22.7002M15.0004 22.7002H33.2007C34.6367 22.7002 35.8008 23.8643 35.8008 25.3002V34.4004C35.8008 35.8364 34.6367 37.0004 33.2007 37.0004H15.0004C13.5645 37.0004 12.4004 35.8364 12.4004 34.4004V25.3002C12.4004 23.8643 13.5645 22.7002 15.0004 22.7002Z" stroke="#111827" stroke-width="2.33" stroke-linecap="round" stroke-linejoin="round"/>
</g>
<defs>
<clipPath id="clip0_225_28964">
<rect width="28" height="28" fill="white" transform="translate(10 9.59961)"/>
</clipPath>
</defs>
</svg>
