<svg width="48" height="48" viewBox="0 0 48 48" fill="none" xmlns="http://www.w3.org/2000/svg">
<rect x="0.400391" width="47.2" height="47.2" rx="23.6" fill="#DCFCE7"/>
<path d="M35.6673 22.5258V23.5991C35.6659 26.115 34.8512 28.5629 33.3449 30.5779C31.8385 32.5929 29.7211 34.067 27.3086 34.7803C24.896 35.4937 22.3175 35.408 19.9575 34.5361C17.5976 33.6643 15.5827 32.0529 14.2134 29.9424C12.8441 27.8318 12.1937 25.3352 12.3593 22.8248C12.5248 20.3145 13.4974 17.9248 15.132 16.0124C16.7666 14.0999 18.9756 12.7671 21.4295 12.2126C23.8835 11.6582 26.451 11.9119 28.749 12.9358M35.6673 14.2658L24.0007 25.9441L20.5007 22.4441" stroke="#16A34A" stroke-width="2.33333" stroke-linecap="round" stroke-linejoin="round"/>
</svg>
