<svg width="32" height="32" viewBox="0 0 32 32" fill="none" xmlns="http://www.w3.org/2000/svg">
<rect x="0.5" y="0.5" width="31" height="31" rx="7.5" fill="white"/>
<rect x="0.5" y="0.5" width="31" height="31" rx="7.5" stroke="#7E22CE"/>
<path d="M11.1406 19.3486C11.2487 19.3489 11.3379 19.4395 11.3379 19.5469C11.3377 19.658 11.2518 19.7439 11.1406 19.7441C11.0332 19.7441 10.9426 19.6549 10.9424 19.5469C10.9424 19.4426 11.0363 19.3486 11.1406 19.3486Z" stroke="#7E22CE" stroke-width="0.9"/>
<path d="M12.5808 19.5104V11.5897C12.5806 10.7963 11.9374 10.15 11.1403 10.15C10.3489 10.1502 9.70094 10.7982 9.70075 11.5897V19.5104C9.70088 20.3074 10.347 20.9499 11.1403 20.9501V21.8501C9.93238 21.8499 8.93343 20.9327 8.81309 19.7504L8.80078 19.5104V11.5897C8.80097 10.3012 9.85184 9.25019 11.1403 9.25C12.4362 9.25 13.4806 10.301 13.4808 11.5897V19.5104L13.4685 19.7504C13.3489 20.9328 12.3552 21.8501 11.1403 21.8501V20.9501C11.9392 20.9501 12.5807 20.3093 12.5808 19.5104Z" fill="#7E22CE"/>
<path d="M8.80078 13.75H9.70078V16.45H8.80078V13.75Z" fill="#7E22CE"/>
<mask id="path-5-inside-1_949_23975" fill="white">
<path d="M8.86555 15.2376C8.86555 15.2376 8.8224 15.2448 8.80078 15.2376C8.81506 15.2328 8.82934 15.2344 8.84353 15.2359L8.84393 15.236L8.85158 15.2368L8.85817 15.2373L8.86555 15.2376Z"/>
</mask>
<path d="M8.80078 15.2376L8.51515 14.3841L5.95856 15.2397L8.51643 16.0915L8.80078 15.2376ZM8.86555 15.2376L9.01368 16.1253L8.9007 14.3383L8.86555 15.2376ZM8.85817 15.2373L8.78962 16.1347L8.80631 16.1359L8.82303 16.1366L8.85817 15.2373ZM8.85158 15.2368L8.75888 16.132L8.77094 16.1332L8.78302 16.1342L8.85158 15.2368ZM8.84393 15.236L8.74496 16.1306L8.75123 16.1312L8.84393 15.236ZM8.84353 15.2359L8.74455 16.1305L8.74456 16.1305L8.84353 15.2359ZM8.80078 15.2376L8.51643 16.0915C8.71177 16.1565 8.88824 16.1391 8.90119 16.1383C8.93074 16.1363 8.95566 16.1335 8.97303 16.1313C8.9821 16.1301 8.99011 16.129 8.9968 16.128C9.00018 16.1275 9.00328 16.127 9.00608 16.1265C9.00749 16.1263 9.00883 16.1261 9.01009 16.1259C9.01072 16.1258 9.01134 16.1257 9.01194 16.1256C9.01224 16.1255 9.01253 16.1255 9.01282 16.1254C9.01297 16.1254 9.01311 16.1254 9.01325 16.1254C9.01333 16.1254 9.01343 16.1253 9.01347 16.1253C9.01357 16.1253 9.01368 16.1253 8.86555 15.2376C8.71743 14.3498 8.71753 14.3498 8.71764 14.3498C8.71767 14.3498 8.71778 14.3498 8.71785 14.3498C8.71799 14.3497 8.71813 14.3497 8.71827 14.3497C8.71855 14.3497 8.71883 14.3496 8.71911 14.3496C8.71966 14.3495 8.72022 14.3494 8.72077 14.3493C8.72187 14.3491 8.72296 14.3489 8.72404 14.3488C8.72621 14.3484 8.72836 14.3481 8.73051 14.3478C8.73476 14.3471 8.73922 14.3465 8.74391 14.3459C8.75252 14.3448 8.7653 14.3433 8.78136 14.3423C8.79563 14.3413 8.82464 14.3398 8.86284 14.3416C8.89147 14.343 8.97806 14.348 9.08513 14.3837L8.80078 15.2376ZM8.86555 15.2376L8.9007 14.3383L8.89331 14.338L8.85817 15.2373L8.82303 16.1366L8.83041 16.1369L8.86555 15.2376ZM8.85817 15.2373L8.92673 14.3399L8.92013 14.3394L8.85158 15.2368L8.78302 16.1342L8.78962 16.1347L8.85817 15.2373ZM8.85158 15.2368L8.94428 14.3416L8.93663 14.3408L8.84393 15.236L8.75123 16.1312L8.75888 16.132L8.85158 15.2368ZM8.84393 15.236L8.9429 14.3414L8.94249 14.3414L8.84353 15.2359L8.74456 16.1305L8.74496 16.1305L8.84393 15.236ZM8.84353 15.2359L8.94251 14.3414C8.94103 14.3412 8.9251 14.3394 8.90706 14.3379C8.88765 14.3363 8.8577 14.3343 8.82142 14.3344C8.7472 14.3344 8.63863 14.3428 8.51515 14.3841L8.80078 15.2376L9.08641 16.091C8.97721 16.1276 8.88292 16.1343 8.82296 16.1344C8.77167 16.1344 8.72897 16.1288 8.74455 16.1305L8.84353 15.2359Z" fill="#7E22CE" mask="url(#path-5-inside-1_949_23975)"/>
<path d="M16.7998 11.7803C17.6779 10.9022 19.2672 11.1321 19.7764 12.5195C19.9784 13.0716 19.8516 13.6964 19.457 14.1504L19.374 14.2393L15.042 18.5645L15.0693 13.4971L16.7988 11.7812L16.7998 11.7803Z" stroke="#7E22CE" stroke-width="1.125"/>
<path d="M20.4443 17.832C21.6864 17.832 22.6472 19.1147 22.0254 20.4609C21.765 21.0231 21.174 21.3867 20.5244 21.3867H15.3027L18.915 17.832H20.4443Z" stroke="#7E22CE" stroke-width="1.125"/>
</svg>
