<svg width="32" height="32" viewBox="0 0 32 32" fill="none" xmlns="http://www.w3.org/2000/svg">
<rect x="0.5" y="0.5" width="31" height="31" rx="7.5" fill="white"/>
<rect x="0.5" y="0.5" width="31" height="31" rx="7.5" stroke="#2563EB"/>
<g clip-path="url(#clip0_963_23179)">
<path d="M23.5 15.3104V16.0004C23.4991 17.6177 22.9754 19.1914 22.007 20.4868C21.0386 21.7821 19.6775 22.7297 18.1265 23.1883C16.5756 23.6469 14.9179 23.5918 13.4009 23.0313C11.8838 22.4708 10.5885 21.435 9.70822 20.0782C8.82795 18.7214 8.40984 17.1164 8.51626 15.5026C8.62267 13.8888 9.24791 12.3526 10.2987 11.1232C11.3495 9.89375 12.7696 9.03692 14.3471 8.6805C15.9247 8.32407 17.5752 8.48714 19.0525 9.14539M23.5 10.0004L16 17.5079L13.75 15.2579" stroke="#2563EB" stroke-width="1.25" stroke-linecap="round" stroke-linejoin="round"/>
</g>
<defs>
<clipPath id="clip0_963_23179">
<rect width="18" height="18" fill="white" transform="translate(7 7)"/>
</clipPath>
</defs>
</svg>
