<svg width="24" height="25" viewBox="0 0 24 25" fill="none" xmlns="http://www.w3.org/2000/svg">
<path fill-rule="evenodd" clip-rule="evenodd" d="M12.0001 8.48828C13.2371 8.48828 14.2441 7.48128 14.2441 6.24428C14.2441 5.00628 13.2371 3.99928 12.0001 3.99928C10.7621 3.99928 9.75414 5.00628 9.75414 6.24428C9.75414 7.48128 10.7621 8.48828 12.0001 8.48828Z" fill="#454545"/>
<path fill-rule="evenodd" clip-rule="evenodd" d="M12.0001 14.7441C13.2371 14.7441 14.2441 13.7371 14.2441 12.5001C14.2441 11.2621 13.2371 10.2551 12.0001 10.2551C10.7621 10.2551 9.75414 11.2621 9.75414 12.5001C9.75414 13.7371 10.7621 14.7441 12.0001 14.7441Z" fill="#454545"/>
<path fill-rule="evenodd" clip-rule="evenodd" d="M12.0001 16.511C10.7621 16.511 9.75414 17.518 9.75414 18.756C9.75414 19.993 10.7621 21 12.0001 21C13.2371 21 14.2441 19.993 14.2441 18.756C14.2441 17.518 13.2371 16.511 12.0001 16.511Z" fill="#454545"/>
</svg>
