<svg width="48" height="48" viewBox="0 0 48 48" fill="none" xmlns="http://www.w3.org/2000/svg">
<path d="M12 0.5H36C42.3513 0.5 47.5 5.64873 47.5 12V36C47.5 42.3513 42.3513 47.5 36 47.5H12C5.64873 47.5 0.5 42.3513 0.5 36V12C0.5 5.64873 5.64873 0.5 12 0.5Z" fill="#F5F5F5"/>
<path d="M12 0.5H36C42.3513 0.5 47.5 5.64873 47.5 12V36C47.5 42.3513 42.3513 47.5 36 47.5H12C5.64873 47.5 0.5 42.3513 0.5 36V12C0.5 5.64873 5.64873 0.5 12 0.5Z" stroke="#E8E8E8"/>
<path d="M24 15C28.9619 15 33 19.0381 33 24C33 28.9628 28.9619 33 24 33C19.0381 33 15 28.9628 15 24C15 19.0381 19.0381 15 24 15ZM28.3467 20.8076C27.8584 20.3194 27.0664 20.3194 26.5781 20.8076L22.8438 24.542L21.418 23.1162H21.4189C20.9307 22.628 20.1396 22.628 19.6514 23.1162C19.1631 23.6045 19.1631 24.3965 19.6514 24.8848L21.96 27.1934C22.2043 27.4377 22.5244 27.5595 22.8447 27.5596C23.1645 27.5596 23.4844 27.4375 23.7285 27.1934L28.3467 22.5752C28.8347 22.087 28.8347 21.2958 28.3467 20.8076Z" fill="#676C6C" stroke="#676C6C"/>
</svg>
