<svg width="204" height="42" viewBox="0 0 204 42" fill="none" xmlns="http://www.w3.org/2000/svg">
<path d="M55.2066 9.34766C64.4059 10.3289 70.048 11.0648 76.7941 11.8008C77.5301 11.9234 78.1434 12.2914 78.7566 13.15C79.2473 14.0086 79.4926 14.9898 79.4926 15.9711C79.4926 19.4055 79.4926 22.7172 79.4926 26.1516C79.4926 27.1328 79.2473 28.2367 78.7566 28.9727C78.266 29.8312 77.5301 30.3219 76.7941 30.3219C70.048 31.0578 64.4059 31.7938 55.2066 32.775C55.2066 25.0477 55.2066 17.1977 55.2066 9.34766ZM203.989 31.3031C203.989 32.5297 203.375 33.143 202.026 33.143H198.592C197.488 33.143 196.875 32.6523 196.384 31.6711L189.761 19.1602C189.27 18.1789 188.534 16.707 188.289 15.4805H187.921C188.043 16.707 188.166 17.9336 188.166 19.1602V33.0203H182.892V11.5555C182.892 10.3289 183.628 9.71562 184.854 9.71562H188.289C189.393 9.71562 190.006 10.2063 190.496 11.1875L196.875 23.3305C197.365 24.3117 198.101 25.7836 198.714 27.1328H199.082C198.96 25.7836 198.837 24.557 198.837 23.2078V9.71562H204.111V31.3031H203.989ZM172.221 33.143H177.74V9.83828H172.221V33.143ZM164.739 31.6711C164.616 32.5297 163.757 33.143 162.776 33.143H157.502C156.521 33.143 155.662 32.5297 155.539 31.6711L152.841 16.4617C152.718 15.4805 152.473 14.4992 152.35 13.518H151.614C151.492 14.4992 151.369 15.4805 151.124 16.4617L148.425 31.6711C148.303 32.5297 147.444 33.143 146.463 33.143H141.189C140.207 33.143 139.349 32.5297 139.226 31.6711L135.301 9.71562H140.943L143.396 25.9062C143.519 26.8875 143.642 27.9914 143.764 29.3406H144.5C144.623 28.2367 144.868 27.0102 144.991 25.9062L147.689 11.3102C147.812 10.3289 148.548 9.71562 149.652 9.71562H154.436C155.417 9.71562 156.275 10.3289 156.398 11.3102L159.096 25.9062C159.219 27.0102 159.464 28.2367 159.587 29.218H160.323C160.446 28.1141 160.446 26.8875 160.691 25.9062L163.144 9.59297H168.786L164.739 31.6711ZM123.036 20.0188C125.979 20.0188 126.838 19.2828 126.838 16.707C126.838 14.1313 125.979 13.3953 123.036 13.3953H118.988V20.0188H123.036ZM127.451 33.143L125.611 25.9062C125.121 24.4344 124.385 23.9438 122.913 23.9438H118.988V33.143H113.591V9.83828C116.657 9.59297 118.62 9.59297 123.158 9.59297C129.659 9.59297 132.48 11.1875 132.48 16.4617C132.48 19.7734 131.254 21.8586 127.696 22.2266V22.3492C128.923 22.5945 130.64 23.4531 131.254 25.9062L133.461 33.143H127.451ZM100.221 15.8484C100.099 15.1125 99.8535 14.3766 99.7309 13.6406H98.7496C98.627 14.3766 98.3816 15.1125 98.259 15.8484L96.1738 22.9625H102.307L100.221 15.8484ZM94.9473 27.0102L93.1074 33.143H87.4652L94.702 11.1875C94.9473 10.3289 95.6832 9.83828 96.6645 9.83828H101.939C102.92 9.83828 103.656 10.3289 103.901 11.1875L111.138 33.143H105.496L103.656 27.0102H94.9473ZM47.7246 0.148438V41.8516C54.4707 40.7477 60.3582 39.6437 65.8777 38.7852C70.784 37.9266 75.1996 37.1906 79.2473 36.4547C80.2285 36.332 81.0871 35.9641 81.8231 35.3508C82.559 34.7375 83.2949 34.0016 83.9082 33.143C84.5215 32.2844 84.8895 31.3031 85.2574 30.1992C85.6254 29.0953 85.748 27.9914 85.748 26.6422C85.748 22.8398 85.748 19.0375 85.748 15.2352C85.748 14.0086 85.6254 12.782 85.2574 11.6781C84.8895 10.5742 84.5215 9.59297 83.9082 8.73438C83.2949 7.87578 82.6816 7.13984 81.8231 6.52656C80.9645 5.91328 80.1059 5.54531 79.2473 5.42266C75.1996 4.68672 70.6613 3.95078 65.7551 3.09219C60.4809 2.35625 54.4707 1.25234 47.7246 0.148438Z" fill="#5A5B5D"/>
<path d="M31.1668 17.075L19.5145 17.443V10.6969C22.9488 10.3289 26.6285 9.83828 31.1668 9.34766C31.1668 11.9234 31.1668 14.4992 31.1668 17.075ZM38.7715 0.148438C32.0254 1.25234 26.0152 2.35625 20.6184 3.21484C15.7121 4.07344 0.748047 6.64922 0.748047 6.64922V35.3508C0.748047 35.3508 15.8348 37.9266 20.741 38.7852C26.1379 39.7664 32.148 40.7477 38.8941 41.8516V0.148438H38.7715ZM31.1668 32.8977C26.6285 32.407 22.9488 32.0391 19.5145 31.5484V19.4055L31.1668 19.0375C31.1668 23.5758 31.1668 28.2367 31.1668 32.8977ZM17.6746 17.443L8.23008 17.6883V11.9234C8.23008 11.9234 14.9762 11.1875 17.6746 10.9422V17.443ZM17.6746 31.3031C14.9762 30.9352 12.4004 30.6898 9.70195 30.4445C8.96602 30.3219 8.23008 30.3219 8.23008 30.3219V19.7734L17.6746 19.5281V31.3031Z" fill="#8FCC09"/>
</svg>
