<svg width="20" height="20" viewBox="0 0 20 20" fill="none" xmlns="http://www.w3.org/2000/svg">
<path d="M10 18.3337H4.16667C3.24619 18.3337 2.5 17.5875 2.5 16.667V3.33366C2.5 2.41318 3.24619 1.66699 4.16667 1.66699H14.1667C15.0871 1.66699 15.8333 2.41318 15.8333 3.33366V8.33366M16.0002 16.0005L17.5002 17.5005M11.6667 14.167C11.6667 14.83 11.9301 15.4659 12.3989 15.9348C12.8677 16.4036 13.5036 16.667 14.1667 16.667C14.8297 16.667 15.4656 16.4036 15.9344 15.9348C16.4033 15.4659 16.6667 14.83 16.6667 14.167C16.6667 13.504 16.4033 12.8681 15.9344 12.3992C15.4656 11.9304 14.8297 11.667 14.1667 11.667C13.5036 11.667 12.8677 11.9304 12.3989 12.3992C11.9301 12.8681 11.6667 13.504 11.6667 14.167Z" stroke="#69696A" stroke-width="1.66667" stroke-linecap="round" stroke-linejoin="round"/>
</svg>
