<svg width="32" height="32" viewBox="0 0 32 32" fill="none" xmlns="http://www.w3.org/2000/svg">
<rect x="0.5" y="0.5" width="31" height="31" rx="7.5" fill="white"/>
<rect x="0.5" y="0.5" width="31" height="31" rx="7.5" stroke="#6B7280"/>
<path d="M19.375 14.0524L12.625 10.1599M9.45215 12.2224L15.9996 16.0099L22.5471 12.2224M16 23.5624V16.0024M22.75 19.0024V13.0024C22.7497 12.7393 22.6803 12.481 22.5487 12.2532C22.417 12.0255 22.2278 11.8364 22 11.7049L16.75 8.70487C16.522 8.57322 16.2633 8.50391 16 8.50391C15.7367 8.50391 15.478 8.57322 15.25 8.70487L10 11.7049C9.7722 11.8364 9.58299 12.0255 9.45135 12.2532C9.31971 12.481 9.25027 12.7393 9.25 13.0024V19.0024C9.25027 19.2654 9.31971 19.5238 9.45135 19.7515C9.58299 19.9792 9.7722 20.1683 10 20.2999L15.25 23.2999C15.478 23.4315 15.7367 23.5008 16 23.5008C16.2633 23.5008 16.522 23.4315 16.75 23.2999L22 20.2999C22.2278 20.1683 22.417 19.9792 22.5487 19.7515C22.6803 19.5238 22.7497 19.2654 22.75 19.0024Z" stroke="#6B7280" stroke-width="1.25" stroke-linecap="round" stroke-linejoin="round"/>
</svg>
