<svg width="20" height="20" viewBox="0 0 20 20" fill="none" xmlns="http://www.w3.org/2000/svg">
<path d="M15.3505 11.7593C15.3505 11.7593 7.67689 12.8888 6.71363 12.9893C5.75038 13.0899 4.22522 12.3342 3.68279 10.8431C3.14035 9.352 3.82225 7.79282 4.62496 7.25118C5.42767 6.70875 12.0002 2.66113 12.0002 2.66113" stroke="#8FCC09" stroke-width="1.25" stroke-linecap="round" stroke-linejoin="round"/>
<path d="M6.91406 12.962L8.14407 16.3415C8.4765 17.2545 9.48516 17.7256 10.3982 17.3923C11.3112 17.0608 11.7814 16.0513 11.4497 15.1391L10.4914 12.5063" stroke="#8FCC09" stroke-width="1.25" stroke-linecap="round" stroke-linejoin="round"/>
<path fill-rule="evenodd" clip-rule="evenodd" d="M15.9224 6.38782C16.8419 8.9135 16.6676 11.2965 15.5324 11.7092C14.3972 12.1227 12.7318 10.4095 11.8123 7.88379C10.8929 5.35727 11.0681 2.97508 12.2024 2.56157C13.3375 2.14805 15.0029 3.86131 15.9224 6.38782Z" stroke="#8FCC09" stroke-width="1.25" stroke-linecap="round" stroke-linejoin="round"/>
</svg>
