<svg width="20" height="20" viewBox="0 0 20 20" fill="none" xmlns="http://www.w3.org/2000/svg">
<path d="M14.9993 7.49984V5.83317C14.9993 4.9127 14.2532 4.1665 13.3327 4.1665H3.33268C2.41221 4.1665 1.66602 4.9127 1.66602 5.83317V10.8332C1.66602 11.7536 2.41221 12.4998 3.33268 12.4998H4.99935M6.66602 15.8332H16.666C17.5865 15.8332 18.3327 15.087 18.3327 14.1665V9.1665C18.3327 8.24603 17.5865 7.49984 16.666 7.49984H6.66602C5.74554 7.49984 4.99935 8.24603 4.99935 9.1665V14.1665C4.99935 15.087 5.74554 15.8332 6.66602 15.8332ZM13.3327 11.6665C13.3327 12.587 12.5865 13.3332 11.666 13.3332C10.7455 13.3332 9.99935 12.587 9.99935 11.6665C9.99935 10.746 10.7455 9.99984 11.666 9.99984C12.5865 9.99984 13.3327 10.746 13.3327 11.6665Z" stroke="#8FCC09" stroke-width="1.66667" stroke-linejoin="round"/>
</svg>
