<svg width="20" height="20" viewBox="0 0 20 20" fill="none" xmlns="http://www.w3.org/2000/svg">
<g clip-path="url(#clip0_573_41103)">
<path d="M18.3346 9.2355V10.0022C18.3336 11.7992 17.7517 13.5477 16.6757 14.987C15.5998 16.4263 14.0874 17.4792 12.3641 17.9888C10.6408 18.4983 8.79902 18.4371 7.11336 17.8143C5.4277 17.1916 3.98851 16.0406 3.01044 14.5331C2.03236 13.0255 1.56779 11.2422 1.68603 9.44909C1.80427 7.65597 2.49897 5.9491 3.66654 4.58306C4.8341 3.21702 6.41196 2.26498 8.16479 1.86895C9.91763 1.47292 11.7515 1.65411 13.393 2.3855M18.3346 3.3355L10.0013 11.6772L7.50131 9.17717" stroke="#16A34A" stroke-width="1.66667" stroke-linecap="round" stroke-linejoin="round"/>
</g>
<defs>
<clipPath id="clip0_573_41103">
<rect width="20" height="20" fill="white"/>
</clipPath>
</defs>
</svg>
