<svg width="20" height="20" viewBox="0 0 20 20" fill="none" xmlns="http://www.w3.org/2000/svg">
<path d="M1.66602 14.9998C1.66602 13.7161 1.66602 13.0743 1.95496 12.6028C2.11663 12.3389 2.33846 12.1171 2.60229 11.9554C3.0738 11.6665 3.71565 11.6665 4.99935 11.6665C6.28305 11.6665 6.9249 11.6665 7.3964 11.9554C7.66024 12.1171 7.88206 12.3389 8.04374 12.6028C8.33268 13.0743 8.33268 13.7161 8.33268 14.9998C8.33268 16.2835 8.33268 16.9254 8.04374 17.3969C7.88206 17.6607 7.66024 17.8826 7.3964 18.0442C6.9249 18.3332 6.28305 18.3332 4.99935 18.3332C3.71565 18.3332 3.0738 18.3332 2.60229 18.0442C2.33846 17.8826 2.11663 17.6607 1.95496 17.3969C1.66602 16.9254 1.66602 16.2835 1.66602 14.9998Z" stroke="#8FCC09" stroke-width="1.5"/>
<path d="M11.666 14.9998C11.666 13.7161 11.666 13.0743 11.955 12.6028C12.1166 12.3389 12.3385 12.1171 12.6023 11.9554C13.0738 11.6665 13.7157 11.6665 14.9993 11.6665C16.283 11.6665 16.9249 11.6665 17.3964 11.9554C17.6602 12.1171 17.8821 12.3389 18.0437 12.6028C18.3327 13.0743 18.3327 13.7161 18.3327 14.9998C18.3327 16.2835 18.3327 16.9254 18.0437 17.3969C17.8821 17.6607 17.6602 17.8826 17.3964 18.0442C16.9249 18.3332 16.283 18.3332 14.9993 18.3332C13.7157 18.3332 13.0738 18.3332 12.6023 18.0442C12.3385 17.8826 12.1166 17.6607 11.955 17.3969C11.666 16.9254 11.666 16.2835 11.666 14.9998Z" stroke="#8FCC09" stroke-width="1.5"/>
<path d="M1.66602 4.99984C1.66602 3.71614 1.66602 3.07429 1.95496 2.60278C2.11663 2.33895 2.33846 2.11712 2.60229 1.95544C3.0738 1.6665 3.71565 1.6665 4.99935 1.6665C6.28305 1.6665 6.9249 1.6665 7.3964 1.95544C7.66024 2.11712 7.88206 2.33895 8.04374 2.60278C8.33268 3.07429 8.33268 3.71614 8.33268 4.99984C8.33268 6.28354 8.33268 6.92538 8.04374 7.39689C7.88206 7.66073 7.66024 7.88255 7.3964 8.04423C6.9249 8.33317 6.28305 8.33317 4.99935 8.33317C3.71565 8.33317 3.0738 8.33317 2.60229 8.04423C2.33846 7.88255 2.11663 7.66073 1.95496 7.39689C1.66602 6.92538 1.66602 6.28354 1.66602 4.99984Z" stroke="#8FCC09" stroke-width="1.5"/>
<path d="M11.666 4.99984C11.666 3.71614 11.666 3.07429 11.955 2.60278C12.1166 2.33895 12.3385 2.11712 12.6023 1.95544C13.0738 1.6665 13.7157 1.6665 14.9993 1.6665C16.283 1.6665 16.9249 1.6665 17.3964 1.95544C17.6602 2.11712 17.8821 2.33895 18.0437 2.60278C18.3327 3.07429 18.3327 3.71614 18.3327 4.99984C18.3327 6.28354 18.3327 6.92538 18.0437 7.39689C17.8821 7.66073 17.6602 7.88255 17.3964 8.04423C16.9249 8.33317 16.283 8.33317 14.9993 8.33317C13.7157 8.33317 13.0738 8.33317 12.6023 8.04423C12.3385 7.88255 12.1166 7.66073 11.955 7.39689C11.666 6.92538 11.666 6.28354 11.666 4.99984Z" stroke="#8FCC09" stroke-width="1.5"/>
</svg>
