<svg width="20" height="16" viewBox="0 0 20 16" fill="none" xmlns="http://www.w3.org/2000/svg">
<path d="M5.83398 5.08331L8.28566 6.53284C9.715 7.37792 10.2863 7.37792 11.7156 6.53284L14.1673 5.08331" stroke="#323E3B" stroke-width="1.5" stroke-linecap="round" stroke-linejoin="round"/>
<path d="M1.67915 9.22964C1.73363 11.7843 1.76087 13.0616 2.70348 14.0078C3.64609 14.9539 4.95796 14.9869 7.58171 15.0528C9.19878 15.0935 10.7999 15.0935 12.417 15.0528C15.0407 14.9869 16.3526 14.9539 17.2952 14.0078C18.2378 13.0616 18.2651 11.7843 18.3195 9.22964C18.3371 8.40824 18.3371 7.59169 18.3195 6.77029C18.2651 4.21568 18.2378 2.93837 17.2952 1.99218C16.3526 1.04599 15.0407 1.01302 12.417 0.9471C10.7999 0.90647 9.19877 0.906468 7.5817 0.947095C4.95796 1.01301 3.64608 1.04597 2.70348 1.99217C1.76087 2.93836 1.73363 4.21566 1.67915 6.77027C1.66164 7.59168 1.66164 8.40824 1.67915 9.22964Z" stroke="#323E3B" stroke-width="1.5" stroke-linejoin="round"/>
</svg>
