<svg width="20" height="20" viewBox="0 0 20 20" fill="none" xmlns="http://www.w3.org/2000/svg">
<path d="M10.3947 17.5H17.5M11.9737 4.86842L15.1316 8.02632M13.6551 3.15968C13.8642 2.95054 14.1125 2.78463 14.3858 2.67145C14.6591 2.55826 14.9519 2.5 15.2477 2.5C15.5435 2.5 15.8364 2.55826 16.1096 2.67145C16.3829 2.78463 16.6312 2.95054 16.8403 3.15968C17.0495 3.36883 17.2154 3.61712 17.3286 3.89038C17.4417 4.16364 17.5 4.45652 17.5 4.75229C17.5 5.04807 17.4417 5.34094 17.3286 5.6142C17.2154 5.88747 17.0495 6.13576 16.8403 6.3449L5.69547 17.4999H2.5L2.5 14.3044L13.6551 3.15968Z" stroke="#101413" stroke-width="1.66667" stroke-linecap="round" stroke-linejoin="round"/>
</svg>
