<svg width="32" height="32" viewBox="0 0 32 32" fill="none" xmlns="http://www.w3.org/2000/svg">
<rect x="0.5" y="0.5" width="31" height="31" rx="7.5" fill="white"/>
<rect x="0.5" y="0.5" width="31" height="31" rx="7.5" stroke="#22C55E"/>
<path d="M13 14.5L16 17.5L19 14.5M10 9.25H22C22.3978 9.25 22.7794 9.40804 23.0607 9.68934C23.342 9.97064 23.5 10.3522 23.5 10.75V15.25C23.5 17.2391 22.7098 19.1468 21.3033 20.5533C19.8968 21.9598 17.9891 22.75 16 22.75C15.0151 22.75 14.0398 22.556 13.1299 22.1791C12.2199 21.8022 11.3931 21.2497 10.6967 20.5533C9.29018 19.1468 8.5 17.2391 8.5 15.25V10.75C8.5 10.3522 8.65804 9.97064 8.93934 9.68934C9.22064 9.40804 9.60218 9.25 10 9.25Z" stroke="#22C55E" stroke-width="1.25" stroke-linecap="round" stroke-linejoin="round"/>
</svg>
