<svg width="20" height="20" viewBox="0 0 20 20" fill="none" xmlns="http://www.w3.org/2000/svg">
<path d="M2.49935 1.66602C2.49935 1.20578 2.12625 0.832682 1.66602 0.832682C1.20578 0.832682 0.832682 1.20578 0.832682 1.66602H1.66602H2.49935ZM1.66602 6.66602H0.832682C0.832682 7.12625 1.20578 7.49935 1.66602 7.49935L1.66602 6.66602ZM3.25706 13.0014C3.07408 12.5791 2.58341 12.3851 2.1611 12.568C1.7388 12.751 1.54479 13.2417 1.72777 13.664L2.49241 13.3327L3.25706 13.0014ZM2.68678 6.24935L1.94159 5.87634L1.93388 5.89176L1.9268 5.90748L2.68678 6.24935ZM6.62439 7.49935C7.08462 7.49935 7.45772 7.12625 7.45772 6.66602C7.45772 6.20578 7.08462 5.83268 6.62439 5.83268V6.66602V7.49935ZM1.66602 1.66602H0.832682V6.66602H1.66602H2.49935V1.66602H1.66602ZM18.3327 9.99935H17.4993C17.4993 14.1481 14.166 17.4993 10.0687 17.4993V18.3327V19.166C15.0996 19.166 19.166 15.0554 19.166 9.99935H18.3327ZM10.0687 1.66602V2.49935C14.166 2.49935 17.4993 5.85063 17.4993 9.99935H18.3327H19.166C19.166 4.94332 15.0996 0.832682 10.0687 0.832682V1.66602ZM10.0687 18.3327V17.4993C7.02699 17.4993 4.40623 15.6536 3.25706 13.0014L2.49241 13.3327L1.72777 13.664C3.12903 16.8981 6.33297 19.166 10.0687 19.166V18.3327ZM2.68678 6.24935L3.43197 6.62236C4.6584 4.17224 7.17256 2.49935 10.0687 2.49935V1.66602V0.832682C6.51202 0.832682 3.43701 2.88883 1.94159 5.87634L2.68678 6.24935ZM1.66602 6.66602V7.49935H2.49935V6.66602V5.83268H1.66602V6.66602ZM2.49935 6.66602V7.49935H6.62439V6.66602V5.83268H2.49935V6.66602ZM2.68678 6.24935L1.9268 5.90748L1.73937 6.32415L2.49935 6.66602L3.25933 7.00788L3.44676 6.59122L2.68678 6.24935Z" fill="white"/>
</svg>
