<svg width="20" height="20" viewBox="0 0 20 20" fill="none" xmlns="http://www.w3.org/2000/svg">
<path d="M11.6673 2.5L17.5007 8.33333M11.6673 8.33333L17.5007 2.5M2.50065 5.41667C2.50065 5.79969 2.57609 6.17896 2.72267 6.53283C2.86925 6.88669 3.08409 7.20822 3.35492 7.47906C3.62576 7.7499 3.94729 7.96474 4.30116 8.11132C4.65502 8.25789 5.0343 8.33333 5.41732 8.33333C5.80034 8.33333 6.17961 8.25789 6.53348 8.11132C6.88734 7.96474 7.20888 7.7499 7.47971 7.47906C7.75055 7.20822 7.96539 6.88669 8.11197 6.53283C8.25854 6.17896 8.33398 5.79969 8.33398 5.41667C8.33398 5.03364 8.25854 4.65437 8.11197 4.30051C7.96539 3.94664 7.75055 3.62511 7.47971 3.35427C7.20888 3.08343 6.88734 2.86859 6.53348 2.72202C6.17961 2.57544 5.80034 2.5 5.41732 2.5C5.0343 2.5 4.65502 2.57544 4.30116 2.72202C3.94729 2.86859 3.62576 3.08343 3.35492 3.35427C3.08409 3.62511 2.86925 3.94664 2.72267 4.30051C2.57609 4.65437 2.50065 5.03364 2.50065 5.41667ZM2.08398 17.5H8.75065L5.41732 11.6667L2.08398 17.5ZM11.6673 11.6667H17.5007V17.5H11.6673V11.6667Z" stroke="#8FCC09" stroke-width="1.25" stroke-linecap="round" stroke-linejoin="round"/>
</svg>
